<svg version="1.1" xmlns="http://www.w3.org/2000/svg" xmlns:xlink="http://www.w3.org/1999/xlink" width="1451.34px" height="362.83px" viewBox="0,0,256,63.99219"><defs><clipPath id="clip-1"><rect x="0" y="0" width="1451.34" height="362.83" id="SVGID_00000170960429676629686140000010044065589727100573_" fill="none"></rect></clipPath></defs><g fill="none" fill-rule="nonzero" stroke="none" stroke-width="1" stroke-linecap="butt" stroke-linejoin="miter" stroke-miterlimit="10" stroke-dasharray="" stroke-dashoffset="0" font-family="none" font-weight="none" font-size="none" text-anchor="none" style="mix-blend-mode: normal"><g transform="translate(0,-0.00347) scale(0.17639,0.17639)"><g><g clip-path="url(#clip-1)"><g fill="#ffffff"><path d="M308.06,137.66h40.45v58.88h89.35v-58.88h40.45v58.88h10.24v40.96h-40.45v-10.24h-140.04z"></path><path d="M667.77,227.27h-40.45v-51.2l-89.35,51.2h-40.45v-89.6h40.45v51.2l89.35,-51.2h40.45z"></path><path d="M678.02,227.27v-89.6h134.41c22.4,0 35.84,17.92 35.84,35.84c0,17.92 -13.44,35.84 -35.84,35.84h-93.96v17.92zM718.47,168.38v10.24h83.72c3.58,0 5.63,-1.92 5.63,-5.12c0,-3.2 -2.05,-5.12 -5.63,-5.12z"></path><path d="M854.68,137.66h40.45v49.15l71.17,-49.15h58.63l-64.9,44.8l64.9,44.8h-58.63l-35.59,-24.58l-35.59,24.58h-40.45v-89.6z"></path><path d="M1150.39,136.38c24.7,0 44.8,21.38 44.8,46.08c0,24.71 -20.1,46.08 -44.8,46.08h-93.45c-24.7,0 -44.8,-21.38 -44.8,-46.08c0,-24.71 20.1,-46.08 44.8,-46.08zM1065.26,169.66c-7.04,0 -12.8,5.76 -12.8,12.8c0,7.04 5.76,12.8 12.8,12.8h76.8c7.04,0 12.8,-5.76 12.8,-12.8c0,-7.04 -5.76,-12.8 -12.8,-12.8z"></path><path d="M1202.88,137.66h40.45v29.44h89.35v-29.44h40.45v89.6h-40.45v-29.44h-89.35v29.44h-40.45z"></path></g><g fill="#ff3c00"><path d="M211.57,159.19v44.45h-44.46h-44.45l44.45,44.46h44.46h44.45v-44.46v-44.45z"></path><path d="M167.11,159.19h44.46l-44.46,-44.45h-44.45h-44.45v44.45v44.45h44.45v-44.45z"></path></g></g></g></g></g></svg>